<svg width="84" height="48" viewBox="0 0 84 48" fill="none" xmlns="http://www.w3.org/2000/svg">
<g clip-path="url(#clip0_2137_28)">
<mask id="mask0_2137_28" style="mask-type:luminance" maskUnits="userSpaceOnUse" x="0" y="0" width="84" height="48">
<path d="M84 0H0V48H84V0Z" fill="white"/>
</mask>
<g mask="url(#mask0_2137_28)">
<path d="M12.2009 22.9999V9.18176H15.1224V14.8831H21.0532V9.18176H23.9679V22.9999H21.0532V17.2918H15.1224V22.9999H12.2009ZM32.3074 9.18176V22.9999H29.3859V11.9548H29.3049L26.1405 13.9385V11.3476L29.5613 9.18176H32.3074Z" fill="#B3B3B3"/>
<path d="M12.6953 39.9999V31.9999H14.3867V35.3007H17.8203V31.9999H19.5078V39.9999H17.8203V36.6952H14.3867V39.9999H12.6953ZM20.8555 39.9999V38.7811L23.7031 36.1444C23.9453 35.9101 24.1484 35.6991 24.3125 35.5116C24.4792 35.3241 24.6055 35.1405 24.6914 34.9608C24.7773 34.7785 24.8203 34.5819 24.8203 34.371C24.8203 34.1366 24.7669 33.9348 24.6602 33.7655C24.5534 33.5936 24.4076 33.4621 24.2227 33.371C24.0378 33.2772 23.8281 33.2304 23.5938 33.2304C23.349 33.2304 23.1354 33.2798 22.9531 33.3788C22.7708 33.4778 22.6302 33.6197 22.5313 33.8046C22.4323 33.9895 22.3828 34.2095 22.3828 34.4647H20.7773C20.7773 33.9413 20.8958 33.4869 21.1328 33.1015C21.3698 32.716 21.7018 32.4179 22.1289 32.2069C22.556 31.996 23.0482 31.8905 23.6055 31.8905C24.1784 31.8905 24.6771 31.9921 25.1016 32.1952C25.5286 32.3957 25.8607 32.6744 26.0977 33.0311C26.3346 33.3879 26.4531 33.7968 26.4531 34.2577C26.4531 34.5598 26.3932 34.858 26.2734 35.1522C26.1563 35.4465 25.9466 35.7733 25.6445 36.1327C25.3424 36.4895 24.9167 36.9179 24.3672 37.4179L23.1992 38.5624V38.6171H26.5586V39.9999H20.8555Z" fill="#757575"/>
<path d="M71 14H41C39.8954 14 39 14.8954 39 16C39 17.1046 39.8954 18 41 18H71C72.1046 18 73 17.1046 73 16C73 14.8954 72.1046 14 71 14Z" fill="#757575"/>
<path d="M71 34H41C39.8954 34 39 34.8954 39 36C39 37.1046 39.8954 38 41 38H71C72.1046 38 73 37.1046 73 36C73 34.8954 72.1046 34 71 34Z" fill="#757575"/>
</g>
</g>
<defs>
<clipPath id="clip0_2137_28">
<rect width="84" height="48" fill="white"/>
</clipPath>
</defs>
</svg>
